<svg xmlns="http://www.w3.org/2000/svg" width="512" height="512" viewBox="0 0 512 512" version="1.1">
	<path d="M 230 26.490 C 218.973 28.378, 210.421 30.789, 203.308 34.014 C 195.490 37.559, 195.206 39.375, 201.430 46.028 C 207.577 52.601, 208.719 57.223, 206.609 66.993 C 204.803 75.356, 199.691 86.875, 195.682 91.617 C 193.980 93.629, 187.634 97.410, 177.773 102.285 C 169.373 106.438, 159.043 112.235, 154.817 115.168 C 117.237 141.249, 93.176 178.313, 82.868 226 C 80.891 235.143, 80.595 239.409, 80.578 259 C 80.560 278.648, 80.840 282.767, 82.784 291.500 C 90.394 325.687, 105.998 355.132, 129.707 380.047 C 145.129 396.252, 158.076 405.745, 178.479 415.806 C 185.640 419.338, 193.017 423.639, 194.870 425.364 C 198.956 429.165, 204.497 440.259, 206.052 447.750 C 207.756 455.960, 206.604 461.180, 201.883 466.635 C 196.424 472.943, 196.876 474.698, 205 478.712 C 217.491 484.886, 240.729 488.699, 258.941 487.563 C 282.495 486.095, 307 478.862, 307 473.378 C 307 472.657, 304.982 469.794, 302.515 467.017 C 300.048 464.239, 297.760 460.737, 297.431 459.233 C 297.102 457.730, 296.647 455.904, 296.419 455.174 C 295.677 452.800, 298.778 440.372, 301.406 435.186 C 304.828 428.432, 309.888 423.707, 316.754 420.852 C 319.866 419.559, 328.057 415.697, 334.956 412.271 C 385.984 386.933, 423.213 330.992, 426.814 274.243 C 429.791 227.334, 414.211 179.934, 383.819 143.442 C 368.125 124.598, 351.411 111.638, 325.776 98.436 C 308.479 89.528, 304.964 86.770, 300.997 78.994 C 297.918 72.959, 295.736 62.243, 296.521 57.010 C 297.343 51.528, 298.307 49.598, 302.644 44.747 C 304.490 42.683, 306 40.089, 306 38.982 C 306 34.922, 292.760 29.624, 275.074 26.608 C 263.790 24.683, 240.897 24.623, 230 26.490 M 239 48.071 C 230.141 49.184, 220.330 51.897, 218.891 53.631 C 217.553 55.243, 217.138 68.044, 218.287 72.250 C 219.140 75.372, 221.981 75.932, 224.088 73.393 C 225.219 72.031, 225.073 71.180, 223.126 67.798 C 219.397 61.319, 220.547 59.449, 229.246 57.841 C 239.642 55.919, 272.477 56.056, 276.500 58.037 C 280.086 59.804, 280.786 63.183, 278.632 68.337 C 277.378 71.339, 277.362 72.056, 278.528 73.023 C 280.625 74.763, 283.332 73.779, 284.106 70.995 C 284.488 69.623, 284.845 65.307, 284.900 61.405 C 284.979 55.811, 284.630 53.987, 283.250 52.781 C 278.023 48.216, 256.269 45.900, 239 48.071 M 238.500 69.877 C 234.666 70.695, 234.209 72.069, 229.362 97.373 C 226.083 114.492, 225.274 117.351, 223.528 118.007 C 222.412 118.427, 216.477 120.365, 210.337 122.315 C 188.129 129.370, 171.070 139.783, 154.449 156.431 C 141.183 169.719, 131.186 184.258, 124.642 199.784 C 109.027 236.828, 107.245 271.565, 119.116 307.500 C 127.367 332.474, 144.905 358.789, 162.873 373.153 C 178.630 385.750, 196.635 394.739, 215.890 399.624 C 221.147 400.958, 225.861 402.461, 226.365 402.965 C 226.869 403.469, 228.107 408.745, 229.117 414.690 C 232.544 434.875, 234.151 441.010, 236.312 442.167 C 237.413 442.756, 244.887 443.471, 252.921 443.756 C 264.638 444.171, 267.752 443.999, 268.661 442.887 C 269.780 441.518, 272.494 428.996, 275.452 411.551 C 276.286 406.629, 277.539 402.095, 278.235 401.476 C 278.931 400.856, 282.650 399.840, 286.500 399.218 C 304.762 396.265, 326.762 387.187, 340.013 377.136 C 349.735 369.761, 363.188 355.292, 370.077 344.801 C 381.510 327.389, 390.455 305.157, 393.641 286.231 C 395.596 274.615, 395.819 252.789, 394.097 241.500 C 384.465 178.336, 342.495 130.807, 283.267 115.991 C 278.360 114.763, 277.713 113.775, 276.069 105 C 274.074 94.350, 269.002 74.904, 267.421 71.847 L 265.949 69 253.724 69.118 C 247.001 69.183, 240.150 69.525, 238.500 69.877 M 224.500 129.548 C 207.352 132.737, 192.150 139.178, 166.500 154.123 C 158.425 158.828, 155.416 161.117, 155.185 162.731 C 154.941 164.432, 155.507 165.082, 157.685 165.603 C 163.584 167.013, 163.431 167.826, 155.746 175.880 C 144.121 188.062, 137.842 203.199, 137.842 219.042 C 137.842 234.760, 144.762 242.278, 152.916 235.417 C 157.213 231.801, 163.571 218.327, 166.530 206.562 C 169.036 196.601, 171.668 169.682, 170.497 165.992 C 169.758 163.661, 170.894 163.006, 173.782 164.097 L 176.065 164.960 175.782 249.230 L 175.500 333.500 173.300 337.612 C 170.446 342.947, 166.117 345, 157.721 345 C 145.525 345, 145.979 349.553, 159.243 360.284 C 171.689 370.351, 182.298 377.141, 195.500 383.488 C 214.720 392.727, 228.037 396, 246.412 396 C 260.693 396, 272.866 393.919, 290.500 388.463 C 314.462 381.049, 329.263 373.876, 344.646 362.221 C 352.215 356.487, 353.591 354.043, 351.512 350.022 C 349.284 345.715, 346.937 345.498, 340.064 348.967 C 333.203 352.431, 321.741 355.403, 318.440 354.574 C 316.158 354.001, 315.126 351.760, 315.768 348.767 C 315.973 347.814, 320.271 344.590, 325.320 341.602 C 352.225 325.683, 366.459 308.919, 372.103 286.507 C 373.058 282.713, 372.978 281.616, 371.595 279.504 C 369.968 277.021, 366.708 276.263, 364.284 277.803 C 363.615 278.228, 361.088 282.609, 358.668 287.538 C 351.819 301.488, 342.656 312.390, 328.500 323.430 C 319.534 330.423, 317.737 331.337, 316.122 329.722 C 315.314 328.914, 315.012 309.434, 315.044 260.050 C 315.092 184.866, 315.020 185.815, 321.022 181 C 322.736 179.625, 327.369 176.689, 331.319 174.475 C 337.623 170.941, 338.538 170.063, 338.809 167.284 C 339.443 160.789, 333.609 158.408, 324.876 161.598 C 322.133 162.600, 316.833 163.252, 310.671 163.346 L 300.842 163.495 297.671 159.840 C 285.924 146.298, 282.206 142.626, 276.192 138.628 C 262.170 129.306, 243.467 126.020, 224.500 129.548 M 217 147.119 C 208.270 149.739, 203.009 156.550, 203.004 165.239 C 202.996 176.572, 206.581 182.617, 235.417 219.905 C 245.452 232.882, 259.026 250.699, 265.582 259.498 L 277.500 275.497 277.804 267.998 C 277.972 263.874, 277.947 245.650, 277.751 227.500 C 277.454 200.133, 277.100 193.476, 275.681 188.500 C 270.783 171.324, 259.695 156.924, 246.255 150.281 C 239.497 146.942, 237.884 146.557, 229.635 146.326 C 224.611 146.184, 218.925 146.541, 217 147.119 M 200.218 276.006 C 200.493 331.156, 200.550 332.595, 202.598 336.500 C 205.430 341.902, 209.266 343.890, 219 345 C 229.258 346.170, 233.072 348.253, 234.791 353.623 C 236.456 358.824, 235.187 362.323, 230.793 364.643 C 227.976 366.130, 224.788 366.364, 208.750 366.261 C 198.438 366.194, 190 366.522, 190 366.988 C 190 368.102, 203.891 372.614, 211.434 373.949 C 237.347 378.538, 261.949 367.998, 271.272 348.315 C 274.122 342.299, 274.500 340.504, 274.500 333 C 274.500 319.956, 275.778 322.068, 232.905 264.295 C 219.928 246.808, 207.201 229.578, 204.623 226.006 L 199.936 219.511 200.218 276.006 M 218.649 439.750 C 217.357 444.409, 216.959 453.055, 217.951 454.909 C 219.278 457.388, 228.516 460.381, 240.039 462.066 C 256.230 464.433, 280.072 461.099, 284.302 455.875 C 285.768 454.065, 286.010 452.602, 285.514 448.556 C 284.304 438.690, 284.034 438, 281.373 438 C 278.949 438, 278.910 438.128, 279.203 445.250 L 279.500 452.500 274 453.654 C 261.898 456.192, 226.592 454.396, 222.544 451.037 C 221.346 450.042, 221.374 449.251, 222.734 445.581 C 223.609 443.220, 224.041 440.548, 223.694 439.644 C 222.856 437.461, 219.263 437.536, 218.649 439.750" stroke="none" fill="white" fill-rule="evenodd"/>
</svg>